<?xml version="1.0" standalone="no"?>
<!DOCTYPE svg PUBLIC "-//W3C//DTD SVG 20010904//EN"
 "http://www.w3.org/TR/2001/REC-SVG-20010904/DTD/svg10.dtd">
<svg version="1.0" xmlns="http://www.w3.org/2000/svg"
 width="2000.000000pt" height="313.000000pt" viewBox="0 0 2000.000000 313.000000"
 preserveAspectRatio="xMidYMid meet">

<g transform="translate(0.000000,313.000000) scale(0.100000,-0.100000)"
fill="#000000" stroke="none">
<path d="M15803 3103 l-143 -4 0 -194 0 -195 445 0 445 0 0 200 0 200 -302 -2
c-167 -1 -367 -4 -445 -5z"/>
<path d="M17264 3090 c-40 -4 -89 -13 -109 -20 -78 -26 -144 -110 -197 -251
-28 -75 -32 -98 -36 -221 l-4 -138 -84 0 -84 0 0 -215 0 -215 80 0 80 0 0
-610 0 -610 365 0 365 0 2 608 3 607 118 3 117 3 0 219 0 220 -92 0 c-140 0
-138 -1 -138 82 0 99 16 153 60 199 36 38 38 39 108 39 l72 0 0 148 0 149
-172 6 c-207 8 -357 7 -454 -3z"/>
<path d="M4948 2778 l-3 -243 -82 -3 -83 -3 0 -199 0 -200 84 0 84 0 4 -507
c4 -490 5 -510 26 -574 28 -86 68 -138 133 -179 100 -61 91 -60 575 -60 l444
0 0 269 0 269 -91 1 c-52 1 -105 8 -124 16 -64 26 -65 35 -65 420 l0 345 120
0 120 0 0 205 0 205 -125 0 -125 0 0 240 0 240 -445 0 -445 0 -2 -242z"/>
<path d="M14288 2778 l-3 -243 -82 -3 -83 -3 0 -199 0 -200 85 0 85 0 0 -392
c1 -216 5 -455 9 -531 9 -133 10 -142 47 -215 33 -65 48 -82 94 -113 108 -71
91 -69 585 -69 l445 0 0 269 0 269 -91 1 c-53 1 -105 8 -125 16 -62 25 -64 42
-64 425 l0 340 120 0 120 0 0 205 0 205 -125 0 -125 0 0 240 0 240 -445 0
-445 0 -2 -242z"/>
<path d="M919 3003 l-186 -3 -151 -458 c-314 -950 -404 -1229 -507 -1572 -44
-149 -52 -187 -42 -197 10 -10 94 -11 414 -5 221 4 405 10 409 14 4 4 26 81
49 170 l42 163 316 3 315 2 16 -47 c24 -75 35 -123 45 -196 5 -38 15 -75 22
-83 10 -12 80 -14 440 -14 235 0 430 4 433 8 6 11 -10 63 -236 772 -254 798
-459 1411 -479 1431 -15 15 -55 17 -365 16 -192 -1 -433 -3 -535 -4z m393
-473 c20 -27 25 -49 112 -431 48 -212 86 -428 86 -491 0 -17 -15 -18 -249 -18
l-248 0 4 28 c13 73 147 643 178 750 57 202 72 222 117 162z"/>
<path d="M12780 2608 c-157 -10 -280 -32 -406 -73 -278 -91 -405 -219 -466
-468 -12 -48 -19 -89 -17 -91 2 -3 194 -6 426 -8 l421 -3 6 64 c13 124 54 176
141 176 93 0 142 -56 152 -174 10 -119 -26 -180 -125 -215 -41 -15 -204 -35
-492 -61 -309 -28 -399 -55 -494 -145 -66 -62 -103 -140 -116 -245 -23 -182
31 -331 163 -451 212 -191 541 -200 919 -26 70 33 94 50 127 91 22 29 43 53
47 54 3 1 19 -34 34 -78 15 -44 34 -95 41 -112 l13 -33 398 0 398 0 -11 27
c-33 88 -41 170 -40 443 1 309 -12 562 -35 694 -52 300 -208 487 -485 581
-123 42 -391 66 -599 53z m270 -1158 c0 -177 -4 -189 -74 -221 -110 -50 -209
14 -223 145 -11 98 37 158 166 206 46 17 91 34 100 39 10 6 18 5 23 -2 4 -7 8
-82 8 -167z"/>
<path d="M7165 2603 c-146 -13 -353 -76 -475 -145 -76 -42 -178 -126 -234
-191 -159 -187 -203 -323 -193 -601 11 -339 111 -532 360 -699 201 -136 388
-192 672 -203 171 -7 301 10 450 60 352 118 572 325 646 611 26 101 36 319 20
424 -34 214 -135 387 -299 512 -76 57 -269 157 -362 187 -114 37 -232 52 -394
50 -83 -1 -169 -3 -191 -5z m249 -504 c33 -26 59 -76 81 -154 22 -81 32 -355
16 -466 -16 -111 -58 -201 -105 -223 -42 -20 -50 -20 -87 0 -143 74 -160 685
-23 831 37 39 78 43 118 12z"/>
<path d="M9817 2594 c-96 -35 -235 -164 -324 -302 -21 -31 -39 -59 -40 -61 -7
-11 -17 18 -57 161 l-42 153 -397 3 -397 2 0 -870 0 -870 465 0 466 0 -1 489
c-1 537 -2 532 59 584 46 39 91 36 134 -6 56 -56 57 -69 57 -591 l0 -476 406
0 406 0 -3 478 c-1 262 1 491 6 507 21 79 61 115 130 115 50 0 90 -43 104
-111 7 -32 11 -222 11 -519 l0 -470 441 0 441 0 -5 603 -5 602 -31 113 c-39
143 -69 199 -153 283 -75 76 -171 136 -268 170 -54 20 -86 23 -190 24 -123 0
-126 0 -200 -36 -122 -59 -228 -149 -337 -288 l-19 -23 -37 56 c-46 70 -146
171 -212 216 -92 63 -147 80 -265 79 -64 0 -120 -6 -143 -15z"/>
<path d="M2543 1958 c4 -563 5 -598 26 -693 32 -146 76 -232 164 -320 114
-114 252 -170 445 -181 181 -11 325 40 442 156 37 36 77 80 91 98 l24 34 34
-121 35 -121 403 0 403 0 0 870 0 870 -475 0 -475 0 -2 -574 c-3 -566 -3 -575
-24 -603 -16 -22 -31 -29 -63 -31 -61 -5 -97 34 -107 114 -4 32 -5 292 -2 577
l6 517 -465 0 -465 0 5 -592z"/>
<path d="M15676 2218 c-3 -183 -10 -568 -16 -856 -5 -287 -7 -529 -4 -537 5
-13 65 -15 449 -15 l442 0 7 80 c8 89 -1 1514 -10 1603 l-6 57 -428 0 -428 0
-6 -332z"/>
<path d="M17963 2538 c2 -7 70 -220 150 -473 362 -1144 347 -1092 347 -1204 0
-116 -28 -187 -90 -232 -28 -21 -207 -61 -260 -58 -76 4 -70 25 -70 -237 0
-146 4 -251 11 -274 l11 -37 87 -5 c175 -10 597 1 666 17 196 45 294 147 409
426 45 109 177 472 271 744 62 180 459 1277 480 1328 7 16 -18 17 -437 17
l-444 0 -69 -360 c-38 -198 -72 -356 -76 -352 -3 4 -13 68 -22 142 -10 74 -34
233 -54 353 l-36 217 -440 0 c-347 0 -438 -3 -434 -12z"/>
</g>
</svg>
